<mxfile host="app.diagrams.net" modified="2024-01-01T15:49:01.842Z" agent="Mozilla/5.0 (Windows NT 10.0; Win64; x64) AppleWebKit/537.36 (KHTML, like Gecko) Chrome/120.0.0.0 Safari/537.36 Edg/120.0.0.0" etag="S46jFKEQJA01iOS-cfwS" version="22.1.16" type="github">
  <diagram name="第 1 页" id="Nl7xQVc4WKRb0VdFeoXM">
    <mxGraphModel dx="1242" dy="543" grid="1" gridSize="10" guides="1" tooltips="1" connect="1" arrows="1" fold="1" page="1" pageScale="1" pageWidth="827" pageHeight="1169" math="0" shadow="0">
      <root>
        <mxCell id="0" />
        <mxCell id="1" parent="0" />
        <mxCell id="eP-oQKJqBQ1bmRZtz8F2-3" value="" style="edgeStyle=orthogonalEdgeStyle;rounded=0;orthogonalLoop=1;jettySize=auto;html=1;" edge="1" parent="1" source="eP-oQKJqBQ1bmRZtz8F2-1">
          <mxGeometry relative="1" as="geometry">
            <mxPoint x="135" y="270" as="targetPoint" />
          </mxGeometry>
        </mxCell>
        <mxCell id="eP-oQKJqBQ1bmRZtz8F2-1" value="开始" style="rounded=1;whiteSpace=wrap;html=1;" vertex="1" parent="1">
          <mxGeometry x="10" y="240" width="70" height="60" as="geometry" />
        </mxCell>
        <mxCell id="eP-oQKJqBQ1bmRZtz8F2-6" value="" style="edgeStyle=orthogonalEdgeStyle;rounded=0;orthogonalLoop=1;jettySize=auto;html=1;" edge="1" parent="1" source="eP-oQKJqBQ1bmRZtz8F2-4" target="eP-oQKJqBQ1bmRZtz8F2-5">
          <mxGeometry relative="1" as="geometry" />
        </mxCell>
        <mxCell id="eP-oQKJqBQ1bmRZtz8F2-4" value="服务器有效性验证" style="whiteSpace=wrap;html=1;" vertex="1" parent="1">
          <mxGeometry x="140" y="240" width="100" height="60" as="geometry" />
        </mxCell>
        <mxCell id="eP-oQKJqBQ1bmRZtz8F2-5" value="" style="whiteSpace=wrap;html=1;" vertex="1" parent="1">
          <mxGeometry x="310" y="240" width="120" height="60" as="geometry" />
        </mxCell>
      </root>
    </mxGraphModel>
  </diagram>
</mxfile>
